<?xml version="1.0" standalone="no"?>
<!DOCTYPE svg PUBLIC "-//W3C//DTD SVG 20010904//EN"
 "http://www.w3.org/TR/2001/REC-SVG-20010904/DTD/svg10.dtd">
<svg version="1.0" xmlns="http://www.w3.org/2000/svg"
 width="200.000000pt" height="200.000000pt" viewBox="0 0 200.000000 200.000000"
 preserveAspectRatio="xMidYMid meet">

<g transform="translate(0.000000,200.000000) scale(0.100000,-0.100000)"
fill="#000000" stroke="none">
<path d="M859 1507 c-69 -29 -105 -54 -152 -106 -164 -181 -124 -460 84 -598
l40 -27 82 82 82 82 -75 76 c-41 41 -92 84 -112 95 -36 18 -38 22 -38 68 0 40
-3 50 -20 54 -37 10 -21 27 25 27 33 0 45 -4 45 -15 0 -8 -7 -15 -15 -15 -11
0 -15 -11 -15 -43 0 -38 4 -46 26 -56 l27 -12 -7 164 c-7 148 -6 165 10 178
13 11 18 11 21 2 6 -18 274 -18 291 -1 27 27 33 -14 26 -180 l-7 -162 24 8
c20 8 24 17 27 61 2 41 0 51 -12 51 -9 0 -16 5 -16 10 0 6 20 10 45 10 25 0
45 -4 45 -10 0 -5 -7 -10 -15 -10 -11 0 -15 -11 -15 -39 0 -55 -7 -69 -49 -91
-20 -10 -70 -53 -111 -94 l-75 -76 77 -77 c75 -75 78 -77 103 -63 45 24 120
107 147 162 78 159 45 343 -84 464 -77 72 -144 98 -258 102 -81 2 -103 -1
-151 -21z"/>
<path d="M872 1208 l3 -93 70 -5 c39 -3 99 -3 135 0 l65 5 3 93 3 92 -141 0
-141 0 3 -92z"/>
<path d="M945 1020 l65 -65 65 65 65 65 -130 0 -130 0 65 -65z"/>
<path d="M930 845 l-74 -74 30 -12 c60 -24 264 -9 264 20 0 7 -133 141 -141
141 -2 0 -38 -34 -79 -75z"/>
<path d="M987 663 c-22 -22 7 -68 36 -57 13 4 14 11 6 32 -9 25 -8 26 6 8 8
-11 15 -15 15 -10 0 25 -46 45 -63 27z"/>
<path d="M520 555 c0 -43 4 -75 10 -75 6 0 10 15 11 33 0 30 1 31 11 10 6 -13
15 -23 19 -23 5 0 14 10 21 23 12 22 12 22 18 -8 5 -27 9 -30 40 -30 l35 0 1
75 1 75 -7 -75 -6 -75 -2 73 c-2 64 -4 72 -22 72 -10 0 -24 -9 -30 -21 -10
-17 -14 -18 -27 -7 -15 12 -15 10 -4 -12 l12 -25 -20 25 c-11 14 -21 28 -21
33 0 4 -9 7 -20 7 -18 0 -20 -7 -20 -75z"/>
<path d="M1212 558 l3 -73 49 1 c58 1 76 19 76 79 0 54 -13 65 -77 65 l-54 0
3 -72z m65 -30 c-2 -18 -4 -4 -4 32 0 36 2 50 4 33 2 -18 2 -48 0 -65z m41 80
c25 -25 10 -108 -20 -108 -4 0 -8 27 -8 60 0 60 6 70 28 48z"/>
<path d="M1362 558 l3 -73 48 1 c51 0 75 18 56 40 -7 8 -6 14 1 19 14 9 13 58
-2 73 -7 7 -34 12 -60 12 l-49 0 3 -72z m65 -30 c-2 -18 -4 -4 -4 32 0 36 2
50 4 33 2 -18 2 -48 0 -65z m41 60 c2 -13 -4 -31 -12 -38 -14 -11 -16 -7 -16
30 0 46 23 53 28 8z m-8 -79 c0 -5 -4 -9 -10 -9 -5 0 -10 7 -10 16 0 8 5 12
10 9 6 -3 10 -10 10 -16z"/>
<path d="M721 576 c-7 -8 -11 -30 -9 -48 4 -39 41 -58 86 -42 21 7 28 17 30
42 4 44 -12 62 -58 62 -21 0 -43 -6 -49 -14z m69 -18 c0 6 7 12 15 12 10 0 15
-10 15 -29 0 -31 -14 -49 -25 -31 -4 6 -11 8 -16 5 -5 -4 -9 9 -9 27 0 25 3
29 10 18 6 -10 10 -11 10 -2z"/>
<path d="M867 535 c38 -78 43 -76 90 43 11 27 -13 10 -26 -19 -12 -27 -15 -29
-23 -15 -5 10 -7 24 -4 32 4 10 -3 14 -29 14 l-35 0 27 -55z"/>
<path d="M976 574 c-9 -22 -7 -67 3 -82 5 -8 21 -12 37 -10 27 3 29 6 32 56
l3 52 -34 0 c-23 0 -37 -6 -41 -16z m61 -61 c-2 -16 -4 -5 -4 22 0 28 2 40 4
28 2 -13 2 -35 0 -50z"/>
<path d="M1081 571 c-25 -47 1 -91 55 -91 34 0 71 19 42 21 -10 1 -24 2 -30 3
-7 0 -13 14 -13 31 0 23 5 31 23 33 15 2 22 -2 22 -12 0 -19 -26 -21 -33 -3
-3 6 -6 -1 -6 -18 0 -16 3 -25 7 -19 4 7 17 14 29 15 20 4 21 6 10 29 -17 34
-90 42 -106 11z"/>
</g>
</svg>
